<svg id="Layer_1" data-name="Layer 1" xmlns="http://www.w3.org/2000/svg" viewBox="0 0 122.88 122.88"><title>email-square-line</title><path d="M26.3,0H96.58a26.36,26.36,0,0,1,26.3,26.3V96.58a26.36,26.36,0,0,1-26.3,26.3H26.3A26.36,26.36,0,0,1,0,96.58V26.3A26.36,26.36,0,0,1,26.3,0Zm7,38.65h56.3a3.65,3.65,0,0,1,3.64,3.64V81a3.57,3.57,0,0,1-.63,2,1.46,1.46,0,0,1-.34.52,1.51,1.51,0,0,1-.34.24,3.7,3.7,0,0,1-2.33.85H33.29a3.63,3.63,0,0,1-2.57-1.07A3.67,3.67,0,0,1,29.65,81V42.29a3.65,3.65,0,0,1,3.64-3.64Zm-.85,40.79L52.17,59.67,32.44,43.58V79.44Zm21.9-18L34,81.83H88.7L69.27,61.44,62.86,66.9h0a1.39,1.39,0,0,1-1.79,0l-6.73-5.48Zm17-1.81,19,20V43.41l-19,16.22ZM34.24,41.44,61.93,64,88.44,41.44ZM96.58,3.72H26.3A22.67,22.67,0,0,0,3.72,26.3V96.58A22.67,22.67,0,0,0,26.3,119.16H96.58a22.67,22.67,0,0,0,22.58-22.58V26.3A22.67,22.67,0,0,0,96.58,3.72Z"/></svg>