<svg width="714" height="62" viewBox="0 0 714 62" fill="none" xmlns="http://www.w3.org/2000/svg">
<path d="M191.457 24.712L191.073 32.68L191.425 40.2L187.137 41L187.521 33.224L187.169 25.512L191.457 24.712ZM186.945 20.04C186.945 19.3147 187.222 18.6747 187.777 18.12C188.331 17.544 188.971 17.256 189.697 17.256C190.422 17.256 190.977 17.4587 191.361 17.864C191.745 18.248 191.937 18.8347 191.937 19.624C191.937 20.4133 191.659 21.096 191.105 21.672C190.571 22.2267 189.942 22.504 189.217 22.504C188.513 22.504 187.958 22.2693 187.553 21.8C187.147 21.3307 186.945 20.744 186.945 20.04ZM194.021 34.312C194.021 31.5813 194.757 29.2667 196.229 27.368C197.701 25.4693 199.418 24.52 201.381 24.52C203.365 24.52 204.901 25.16 205.989 26.44C207.098 27.72 207.653 29.416 207.653 31.528C207.653 34.344 206.938 36.6907 205.509 38.568C204.101 40.424 202.32 41.352 200.165 41.352C198.394 41.352 196.922 40.6907 195.749 39.368C194.597 38.024 194.021 36.3387 194.021 34.312ZM204.069 33.192C204.069 30.0987 203.013 28.552 200.901 28.552C198.704 28.552 197.605 30.0027 197.605 32.904C197.605 34.4187 197.914 35.6027 198.533 36.456C199.152 37.3093 199.962 37.736 200.965 37.736C201.989 37.736 202.757 37.352 203.269 36.584C203.802 35.7947 204.069 34.664 204.069 33.192ZM219.699 32.904C219.699 31.432 219.571 30.4507 219.315 29.96C219.059 29.4693 218.461 29.224 217.523 29.224C216.584 29.224 215.517 29.5973 214.323 30.344V32.68L214.675 40.2L210.387 41L210.771 33.224C210.685 30.3653 210.451 27.8053 210.067 25.544L213.939 24.712C214.088 25.9493 214.195 27.1547 214.259 28.328C214.579 27.9013 214.941 27.4853 215.347 27.08C215.752 26.6533 216.392 26.184 217.267 25.672C218.141 25.1387 219.059 24.872 220.019 24.872C221 24.872 221.821 25.256 222.483 26.024C223.144 26.7707 223.475 27.7947 223.475 29.096L223.283 32.68L223.635 40.36L219.315 41.16L219.699 32.904ZM232.929 37.736C233.547 37.736 234.198 37.576 234.881 37.256C235.563 36.936 236.097 36.616 236.481 36.296L237.057 35.816L238.529 37.608C238.315 37.9707 237.985 38.3867 237.537 38.856C237.089 39.3253 236.63 39.7307 236.161 40.072C235.713 40.392 235.105 40.6907 234.337 40.968C233.59 41.224 232.811 41.352 232.001 41.352C230.273 41.352 228.865 40.7013 227.777 39.4C226.689 38.0773 226.145 36.3813 226.145 34.312C226.145 31.7093 226.902 29.4267 228.417 27.464C229.931 25.5013 231.702 24.52 233.729 24.52C235.286 24.52 236.491 24.9573 237.345 25.832C238.219 26.7067 238.657 27.9333 238.657 29.512C238.657 30.4507 238.497 31.5173 238.177 32.712L237.537 33.384L229.536 34.12C229.899 36.5307 231.03 37.736 232.929 37.736ZM232.929 27.816C231.99 27.816 231.201 28.2 230.561 28.968C229.921 29.7147 229.547 30.6747 229.441 31.848L234.881 31.176C234.945 30.6853 234.977 30.28 234.977 29.96C234.977 28.5307 234.294 27.816 232.929 27.816ZM247.21 37.736C247.828 37.736 248.479 37.576 249.162 37.256C249.844 36.936 250.378 36.616 250.762 36.296L251.338 35.816L252.81 37.608C252.596 37.9707 252.266 38.3867 251.818 38.856C251.37 39.3253 250.911 39.7307 250.442 40.072C249.994 40.392 249.386 40.6907 248.618 40.968C247.871 41.224 247.092 41.352 246.282 41.352C244.554 41.352 243.146 40.7013 242.058 39.4C240.97 38.0773 240.426 36.3813 240.426 34.312C240.426 31.7093 241.183 29.4267 242.698 27.464C244.212 25.5013 245.983 24.52 248.01 24.52C249.567 24.52 250.772 24.9573 251.626 25.832C252.5 26.7067 252.938 27.9333 252.938 29.512C252.938 30.4507 252.778 31.5173 252.458 32.712L251.818 33.384L243.818 34.12C244.18 36.5307 245.311 37.736 247.21 37.736ZM247.21 27.816C246.271 27.816 245.482 28.2 244.842 28.968C244.202 29.7147 243.828 30.6747 243.722 31.848L249.162 31.176C249.226 30.6853 249.258 30.28 249.258 29.96C249.258 28.5307 248.575 27.816 247.21 27.816ZM255.379 25.544L259.251 24.712C259.443 26.3547 259.571 27.912 259.635 29.384C261.576 26.376 263.4 24.872 265.107 24.872L264.755 29.864C263.518 29.864 262.536 29.9813 261.811 30.216C261.107 30.4293 260.382 30.8667 259.635 31.528V32.68L259.987 40.2L255.699 41L256.083 33.224C255.998 30.3653 255.763 27.8053 255.379 25.544ZM271.969 38.024C273.079 38.024 273.633 37.5333 273.633 36.552C273.633 36.2107 273.388 35.8907 272.897 35.592C272.428 35.2933 271.841 34.9947 271.137 34.696C270.455 34.3973 269.761 34.0667 269.057 33.704C268.375 33.32 267.788 32.7973 267.297 32.136C266.828 31.4747 266.593 30.7173 266.593 29.864C266.593 28.4347 267.223 27.1867 268.481 26.12C269.74 25.0533 271.191 24.52 272.833 24.52C273.601 24.52 274.348 24.616 275.073 24.808C275.82 24.9787 276.535 25.256 277.217 25.64L275.073 29.544C274.924 29.416 274.732 29.256 274.497 29.064C274.263 28.872 273.815 28.6267 273.153 28.328C272.513 28.008 271.937 27.848 271.425 27.848C270.935 27.848 270.551 27.9653 270.273 28.2C270.017 28.4133 269.889 28.7227 269.889 29.128C269.889 29.512 270.252 29.9067 270.977 30.312C271.724 30.696 272.535 31.0587 273.409 31.4C274.284 31.72 275.084 32.264 275.809 33.032C276.556 33.7787 276.929 34.6747 276.929 35.72C276.929 37.2133 276.311 38.5253 275.073 39.656C273.857 40.7867 272.449 41.352 270.849 41.352C269.825 41.352 268.865 41.128 267.969 40.68C267.095 40.232 266.465 39.784 266.081 39.336L265.505 38.664L268.033 35.72C268.161 35.8907 268.343 36.104 268.577 36.36C268.812 36.616 269.271 36.9573 269.953 37.384C270.657 37.8107 271.329 38.024 271.969 38.024ZM332.306 41C331.047 41 330.013 40.6053 329.202 39.816C328.413 39.0053 328.018 37.928 328.018 36.584C328.018 35.2187 328.637 34.0453 329.874 33.064C331.111 32.0613 332.615 31.56 334.386 31.56H336.562V31.016C336.562 29.9707 336.349 29.256 335.922 28.872C335.495 28.488 334.695 28.296 333.522 28.296C333.031 28.296 332.445 28.4027 331.762 28.616C331.101 28.808 330.354 29.1173 329.522 29.544L328.594 27.016C329.511 26.376 330.621 25.8 331.922 25.288C333.245 24.776 334.333 24.52 335.186 24.52C338.535 24.52 340.21 26.1413 340.21 29.384V35.656C340.21 36.8507 340.583 38.184 341.33 39.656L337.938 41.096C337.405 40.072 337.01 39.1547 336.754 38.344C335.581 40.1147 334.098 41 332.306 41ZM333.65 37.736C334.503 37.736 335.474 37.2987 336.562 36.424V34.28C335.431 34.024 334.514 33.896 333.81 33.896C332.466 33.896 331.794 34.4933 331.794 35.688C331.794 36.3067 331.965 36.808 332.306 37.192C332.647 37.5547 333.095 37.736 333.65 37.736ZM349.546 37H349.962L351.018 32.616L352.746 24.712L356.714 25.192L354.314 33.128L352.298 40.616L346.826 41.096L344.938 33.32L342.634 25.544L346.986 24.744L348.362 31.784L349.546 37ZM363.113 24.712L362.729 32.68L363.081 40.2L358.793 41L359.177 33.224L358.825 25.512L363.113 24.712ZM358.601 20.04C358.601 19.3147 358.878 18.6747 359.433 18.12C359.987 17.544 360.627 17.256 361.353 17.256C362.078 17.256 362.633 17.4587 363.017 17.864C363.401 18.248 363.593 18.8347 363.593 19.624C363.593 20.4133 363.315 21.096 362.761 21.672C362.227 22.2267 361.598 22.504 360.873 22.504C360.169 22.504 359.614 22.2693 359.209 21.8C358.803 21.3307 358.601 20.744 358.601 20.04ZM365.517 44.168C365.517 42.2907 367.267 40.8187 370.765 39.752C369.933 39.3253 369.517 38.7707 369.517 38.088C369.517 37.8107 369.624 37.5333 369.837 37.256C370.051 36.9787 370.36 36.6907 370.765 36.392V36.136C369.229 36.136 368.003 35.7093 367.085 34.856C366.189 34.0027 365.741 32.8613 365.741 31.432C365.741 29.576 366.499 27.9653 368.013 26.6C369.528 25.2133 371.32 24.52 373.389 24.52C373.923 24.52 374.701 24.6267 375.725 24.84C376.749 25.0533 377.752 25.16 378.733 25.16H381.197L380.877 27.944L378.477 27.656C378.691 28.2747 378.797 28.9787 378.797 29.768C378.797 30.5573 378.605 31.3467 378.221 32.136C377.859 32.904 377.411 33.5227 376.877 33.992C376.365 34.4613 375.843 34.8773 375.309 35.24C374.797 35.5813 374.349 35.8907 373.965 36.168C373.603 36.424 373.421 36.6587 373.421 36.872C373.421 37.2773 373.848 37.6293 374.701 37.928C376.963 38.8453 378.488 39.624 379.277 40.264C380.088 40.904 380.493 41.6933 380.493 42.632C380.493 44.2107 379.693 45.5013 378.093 46.504C376.515 47.528 374.627 48.04 372.429 48.04C370.232 48.04 368.525 47.688 367.309 46.984C366.115 46.28 365.517 45.3413 365.517 44.168ZM375.181 30.728C375.181 29.6827 374.947 28.9147 374.477 28.424C374.008 27.9333 373.272 27.688 372.269 27.688C370.328 27.688 369.357 28.648 369.357 30.568C369.357 32.4667 370.392 33.416 372.461 33.416C374.275 33.416 375.181 32.52 375.181 30.728ZM376.333 43.112C376.333 42.728 376.131 42.3653 375.725 42.024C375.32 41.704 374.595 41.32 373.549 40.872C371.992 41.2987 370.915 41.6933 370.317 42.056C369.741 42.4187 369.453 42.8667 369.453 43.4C369.453 43.9333 369.741 44.36 370.317 44.68C370.915 45.0213 371.736 45.192 372.781 45.192C373.827 45.192 374.68 45 375.341 44.616C376.003 44.232 376.333 43.7307 376.333 43.112ZM386.087 41C384.829 41 383.794 40.6053 382.983 39.816C382.194 39.0053 381.799 37.928 381.799 36.584C381.799 35.2187 382.418 34.0453 383.655 33.064C384.893 32.0613 386.397 31.56 388.167 31.56H390.343V31.016C390.343 29.9707 390.13 29.256 389.703 28.872C389.277 28.488 388.477 28.296 387.303 28.296C386.813 28.296 386.226 28.4027 385.543 28.616C384.882 28.808 384.135 29.1173 383.303 29.544L382.375 27.016C383.293 26.376 384.402 25.8 385.703 25.288C387.026 24.776 388.114 24.52 388.967 24.52C392.317 24.52 393.991 26.1413 393.991 29.384V35.656C393.991 36.8507 394.365 38.184 395.111 39.656L391.719 41.096C391.186 40.072 390.791 39.1547 390.535 38.344C389.362 40.1147 387.879 41 386.087 41ZM387.431 37.736C388.285 37.736 389.255 37.2987 390.343 36.424V34.28C389.213 34.024 388.295 33.896 387.591 33.896C386.247 33.896 385.575 34.4933 385.575 35.688C385.575 36.3067 385.746 36.808 386.087 37.192C386.429 37.5547 386.877 37.736 387.431 37.736ZM399.135 25.512V22.024L403.455 21.192L403.039 25.512H406.911L406.559 28.136H402.911L402.751 34.824C402.751 35.8267 402.847 36.4987 403.039 36.84C403.231 37.16 403.583 37.32 404.095 37.32C404.607 37.32 405.29 37.2027 406.143 36.968L406.335 39.24C404.927 40.4133 403.69 41 402.623 41C401.557 41 400.682 40.616 399.999 39.848C399.317 39.0587 398.975 38.0347 398.975 36.776L399.167 33.192L399.135 28.136H396.927L397.279 25.512H399.135ZM413.55 24.712L413.166 32.68L413.518 40.2L409.23 41L409.614 33.224L409.262 25.512L413.55 24.712ZM409.038 20.04C409.038 19.3147 409.316 18.6747 409.87 18.12C410.425 17.544 411.065 17.256 411.79 17.256C412.516 17.256 413.07 17.4587 413.454 17.864C413.838 18.248 414.03 18.8347 414.03 19.624C414.03 20.4133 413.753 21.096 413.198 21.672C412.665 22.2267 412.036 22.504 411.31 22.504C410.606 22.504 410.052 22.2693 409.646 21.8C409.241 21.3307 409.038 20.744 409.038 20.04ZM426.355 32.904C426.355 31.432 426.227 30.4507 425.971 29.96C425.715 29.4693 425.117 29.224 424.179 29.224C423.24 29.224 422.173 29.5973 420.979 30.344V32.68L421.331 40.2L417.043 41L417.427 33.224C417.341 30.3653 417.107 27.8053 416.723 25.544L420.595 24.712C420.744 25.9493 420.851 27.1547 420.915 28.328C421.235 27.9013 421.597 27.4853 422.003 27.08C422.408 26.6533 423.048 26.184 423.923 25.672C424.797 25.1387 425.715 24.872 426.675 24.872C427.656 24.872 428.477 25.256 429.139 26.024C429.8 26.7707 430.131 27.7947 430.131 29.096L429.939 32.68L430.291 40.36L425.971 41.16L426.355 32.904ZM432.705 44.168C432.705 42.2907 434.454 40.8187 437.953 39.752C437.121 39.3253 436.705 38.7707 436.705 38.088C436.705 37.8107 436.811 37.5333 437.025 37.256C437.238 36.9787 437.547 36.6907 437.953 36.392V36.136C436.417 36.136 435.19 35.7093 434.273 34.856C433.377 34.0027 432.929 32.8613 432.929 31.432C432.929 29.576 433.686 27.9653 435.201 26.6C436.715 25.2133 438.507 24.52 440.577 24.52C441.11 24.52 441.889 24.6267 442.913 24.84C443.937 25.0533 444.939 25.16 445.921 25.16H448.385L448.065 27.944L445.665 27.656C445.878 28.2747 445.985 28.9787 445.985 29.768C445.985 30.5573 445.793 31.3467 445.409 32.136C445.046 32.904 444.598 33.5227 444.065 33.992C443.553 34.4613 443.03 34.8773 442.497 35.24C441.985 35.5813 441.537 35.8907 441.153 36.168C440.79 36.424 440.609 36.6587 440.609 36.872C440.609 37.2773 441.035 37.6293 441.889 37.928C444.15 38.8453 445.675 39.624 446.465 40.264C447.275 40.904 447.681 41.6933 447.681 42.632C447.681 44.2107 446.881 45.5013 445.281 46.504C443.702 47.528 441.814 48.04 439.617 48.04C437.419 48.04 435.713 47.688 434.497 46.984C433.302 46.28 432.705 45.3413 432.705 44.168ZM442.369 30.728C442.369 29.6827 442.134 28.9147 441.665 28.424C441.195 27.9333 440.459 27.688 439.457 27.688C437.515 27.688 436.545 28.648 436.545 30.568C436.545 32.4667 437.579 33.416 439.649 33.416C441.462 33.416 442.369 32.52 442.369 30.728ZM443.521 43.112C443.521 42.728 443.318 42.3653 442.913 42.024C442.507 41.704 441.782 41.32 440.737 40.872C439.179 41.2987 438.102 41.6933 437.505 42.056C436.929 42.4187 436.641 42.8667 436.641 43.4C436.641 43.9333 436.929 44.36 437.505 44.68C438.102 45.0213 438.923 45.192 439.969 45.192C441.014 45.192 441.867 45 442.529 44.616C443.19 44.232 443.521 43.7307 443.521 43.112ZM499.181 41C497.922 41 496.888 40.6053 496.077 39.816C495.288 39.0053 494.893 37.928 494.893 36.584C494.893 35.2187 495.512 34.0453 496.749 33.064C497.986 32.0613 499.49 31.56 501.261 31.56H503.437V31.016C503.437 29.9707 503.224 29.256 502.797 28.872C502.37 28.488 501.57 28.296 500.397 28.296C499.906 28.296 499.32 28.4027 498.637 28.616C497.976 28.808 497.229 29.1173 496.397 29.544L495.469 27.016C496.386 26.376 497.496 25.8 498.797 25.288C500.12 24.776 501.208 24.52 502.061 24.52C505.41 24.52 507.085 26.1413 507.085 29.384V35.656C507.085 36.8507 507.458 38.184 508.205 39.656L504.813 41.096C504.28 40.072 503.885 39.1547 503.629 38.344C502.456 40.1147 500.973 41 499.181 41ZM500.525 37.736C501.378 37.736 502.349 37.2987 503.437 36.424V34.28C502.306 34.024 501.389 33.896 500.685 33.896C499.341 33.896 498.669 34.4933 498.669 35.688C498.669 36.3067 498.84 36.808 499.181 37.192C499.522 37.5547 499.97 37.736 500.525 37.736ZM512.229 25.512V22.024L516.549 21.192L516.133 25.512H520.005L519.653 28.136H516.005L515.845 34.824C515.845 35.8267 515.941 36.4987 516.133 36.84C516.325 37.16 516.677 37.32 517.189 37.32C517.701 37.32 518.384 37.2027 519.237 36.968L519.429 39.24C518.021 40.4133 516.784 41 515.717 41C514.65 41 513.776 40.616 513.093 39.848C512.41 39.0587 512.069 38.0347 512.069 36.776L512.261 33.192L512.229 28.136H510.021L510.373 25.512H512.229ZM531.7 32.904C531.7 31.432 531.572 30.4507 531.316 29.96C531.06 29.4693 530.463 29.224 529.524 29.224C528.585 29.224 527.519 29.5973 526.324 30.344V32.68L526.676 40.2L522.356 41L522.74 33.224L522.356 17.032L526.74 16.232L526.324 24.52V28.264C526.644 27.8373 527.007 27.4213 527.412 27.016C527.817 26.6107 528.447 26.152 529.3 25.64C530.153 25.128 531.06 24.872 532.02 24.872C533.001 24.872 533.823 25.256 534.484 26.024C535.145 26.7707 535.476 27.7947 535.476 29.096L535.284 32.68L535.636 40.36L531.316 41.16L531.7 32.904ZM544.001 38.024C545.11 38.024 545.665 37.5333 545.665 36.552C545.665 36.2107 545.419 35.8907 544.929 35.592C544.459 35.2933 543.873 34.9947 543.169 34.696C542.486 34.3973 541.793 34.0667 541.089 33.704C540.406 33.32 539.819 32.7973 539.329 32.136C538.859 31.4747 538.625 30.7173 538.625 29.864C538.625 28.4347 539.254 27.1867 540.513 26.12C541.771 25.0533 543.222 24.52 544.865 24.52C545.633 24.52 546.379 24.616 547.105 24.808C547.851 24.9787 548.566 25.256 549.249 25.64L547.105 29.544C546.955 29.416 546.763 29.256 546.529 29.064C546.294 28.872 545.846 28.6267 545.185 28.328C544.545 28.008 543.969 27.848 543.457 27.848C542.966 27.848 542.582 27.9653 542.305 28.2C542.049 28.4133 541.921 28.7227 541.921 29.128C541.921 29.512 542.283 29.9067 543.009 30.312C543.755 30.696 544.566 31.0587 545.441 31.4C546.315 31.72 547.115 32.264 547.841 33.032C548.587 33.7787 548.961 34.6747 548.961 35.72C548.961 37.2133 548.342 38.5253 547.105 39.656C545.889 40.7867 544.481 41.352 542.881 41.352C541.857 41.352 540.897 41.128 540.001 40.68C539.126 40.232 538.497 39.784 538.113 39.336L537.537 38.664L540.065 35.72C540.193 35.8907 540.374 36.104 540.609 36.36C540.843 36.616 541.302 36.9573 541.985 37.384C542.689 37.8107 543.361 38.024 544.001 38.024Z" fill="black"/>
<path d="M178.535 18.92C180.583 18.92 182.215 19.5067 183.431 20.68C184.647 21.832 185.255 23.4213 185.255 25.448C185.255 27.4747 184.487 29.2133 182.951 30.664C181.415 32.0933 179.538 32.808 177.319 32.808H175.495L175.879 41H171.591L171.975 33.224L171.591 18.92H178.535ZM177.383 22.152H175.815L175.591 29.704H177.767C178.834 29.704 179.655 29.352 180.231 28.648C180.829 27.944 181.127 26.9413 181.127 25.64C181.127 23.3147 179.879 22.152 177.383 22.152ZM487.348 18.92C489.396 18.92 491.028 19.5067 492.244 20.68C493.46 21.832 494.068 23.4213 494.068 25.448C494.068 27.4747 493.3 29.2133 491.764 30.664C490.228 32.0933 488.35 32.808 486.132 32.808H484.308L484.692 41H480.404L480.788 33.224L480.404 18.92H487.348ZM486.196 22.152H484.628L484.404 29.704H486.58C487.646 29.704 488.468 29.352 489.044 28.648C489.641 27.944 489.94 26.9413 489.94 25.64C489.94 23.3147 488.692 22.152 486.196 22.152Z" fill="#238DD2"/>
<path d="M309.006 45.0625L309.29 22.0539L320.438 29.1991L323.443 16.9026L325.511 16.5067L325.227 39.5154L314.079 32.3701L311.074 44.6666L309.006 45.0625Z" fill="#238DD2"/>
</svg>
